<svg xmlns="http://www.w3.org/2000/svg" width="256" height="256"><path fill-opacity=".016" d="M0 128.004v128.004l128.25-.254 128.25-.254.254-127.75L257.008 0H0v128.004m.485.496c0 70.4.119 99.053.265 63.672.146-35.38.146-92.98 0-128C.604 29.153.485 58.1.485 128.5" fill="#1976D2" fill-rule="evenodd"/><path fill-opacity=".095" d="M129.25 60.937c-1.787 1.119-3.314 2.378-3.393 2.798-.798 4.27-.395 10.171.826 12.102.812 1.285 1.719 2.094 2.016 1.797.296-.296 1.193.115 1.991.914.799.798 2.568 1.452 3.931 1.452 2.438 0 8.379-2.542 8.379-3.585 0-.293-.562-.215-1.25.173-.687.388-.238-.278 1-1.48 3.216-3.124 3.005-8.239-.5-12.127-3.629-4.025-8.586-4.805-13-2.044M100 74.923c0 .558.787.732 1.75.386.963-.345 1.425-.268 1.027.171-.397.44 1.532 3.266 4.287 6.28 2.755 3.015 5.66 6.739 6.455 8.276l1.444 2.794-5.713 3.224c-3.142 1.773-8.46 5.862-11.816 9.085-5.546 5.325-6.508 5.863-10.519 5.883-2.428.012-6.347.899-8.708 1.97-4.006 1.818-4.328 1.834-4.818.228-.288-.946-1.397-3.65-2.462-6.008-1.918-4.243-1.918-4.277.002-3.25 2.852 1.526 8.303 1.264 10.854-.523 7.95-5.568 5.968-17.386-3.436-20.489-4.4-1.453-9.985 1.15-12.74 5.935-1.622 2.817-1.779 4.018-.939 7.167l1.01 3.783-2.409-1.578c-1.325-.869-3.84-2.294-5.589-3.168-2.047-1.023-4.223-3.536-6.108-7.054-3.149-5.876-4.173-5.664-2.77.575l.875 3.89-24.839-.299L0 91.902V194l20.75-.02c23.45-.022 32.457-1.008 39.719-4.347 7.291-3.352 11.014-6.911 14.473-13.833 2.659-5.322 3.058-7.181 3.058-14.263 0-6.748-.442-9.031-2.578-13.317-1.418-2.845-3.921-6.304-5.564-7.686-2.687-2.261-2.848-2.71-1.604-4.486 1.322-1.887 1.632-1.721 7.084 3.788 4.992 5.044 5.813 6.44 6.595 11.213C86.163 176.85 108.558 196 134.5 196c26.636 0 49.262-20.081 53.034-47.069.502-3.592 1.365-5.148 4.036-7.28l3.398-2.711.266 27.28.266 27.28h61l.017-51.5c.011-33.623-.08-38.396-.262-13.75l-.279 37.75H228v-9.942l13.25-.279 13.25-.279v-26l-13.25-.279-13.25-.279V119h27V92h-36.038l.612-2.75a126.27 126.27 0 011.086-4.5c.908-3.347-1.175-1.723-3.206 2.5-1.999 4.157-2.162 4.256-7.499 4.538-5.196.275-5.517.149-6.751-2.665-3.538-8.06-15.81-8.654-19.789-.958-.778 1.505-1.415 4.378-1.415 6.385 0 4.847 5.308 10.45 9.9 10.45 3.087 0 3.1.023 3.1 5.442v5.442l-4.25-2.43c-2.724-1.557-5.866-2.442-8.75-2.463-4.151-.03-4.951-.49-10.328-5.943-3.229-3.276-8.644-7.371-12.146-9.186l-6.319-3.277 3.815-5.617c2.098-3.089 5.448-7.052 7.445-8.805 2.905-2.551 3.313-3.31 2.038-3.799-4.368-1.677-10.163.859-23.461 10.264-8.191 5.793-10.071 5.568-20.962-2.507-5.183-3.843-9.503-6.256-11.866-6.629-2.044-.322-5.179-.81-6.966-1.084-1.857-.285-3.25-.064-3.25.515M.465 143c0 28.325.128 39.913.284 25.75.157-14.162.157-37.337 0-51.5C.593 103.088.465 114.675.465 143M32 123.366v6.365l4.122-.753c4.567-.836 5.84-2.172 5.863-6.157.02-3.639-2.437-5.821-6.556-5.821H32v6.366m92.5 1.497c-9.134 5.697-12.874 16.52-8.952 25.905 2.235 5.35 5.066 7.944 11.154 10.222 7.308 2.734 9.929 2.547 17.393-1.24 5.254-2.666 6.809-4.052 8.655-7.712 3.145-6.236 2.998-12.893-.423-19.178-2.238-4.113-7.412-8.86-9.656-8.86-.91 0-3.19 8.435-5.238 19.378-1.016 5.432-2.018 9.367-2.226 8.743-.208-.623-.846-.844-1.418-.491-.673.416-.89-.639-.615-2.994.233-2 .153-3.636-.18-3.636-.332 0-1.182-3.262-1.889-7.25-.707-3.988-1.807-8.939-2.445-11.004l-1.16-3.755-3 1.872M32 160.364V169h2.851c9.369 0 14.241-7.365 8.899-13.452-1.58-1.799-3.665-2.75-7-3.192l-4.75-.628v8.636m102.079-3.781c.048 1.165.285 1.402.604.605.289-.722.253-1.585-.079-1.917-.332-.332-.568.258-.525 1.312" fill="#1976D2" fill-rule="evenodd"/><path fill-opacity=".634" d="M70.11 84.396c-5.762 3.193-6.858 11.616-2.192 16.838 7.465 8.355 21.009.33 17.977-10.651-1.743-6.313-9.835-9.485-15.785-6.187m118.146-.418c-2.733 1.161-6.247 6.681-6.252 9.822-.01 5.717 5.848 11.2 11.964 11.2 1.811 0 2.032.636 2.032 5.845v5.846l-5.641-2.846c-3.211-1.619-7.258-2.845-9.394-2.845-3.221 0-4.586-.816-9.644-5.765-3.24-3.171-8.489-7.108-11.664-8.75-5.6-2.896-5.814-2.928-7.184-1.085-1.628 2.19-5.873 13.012-8.478 21.616l-1.789 5.908 3.258 1.922c6.782 4.002 11.393 13.672 10.043 21.063-1.239 6.784-4.926 11.579-11.22 14.592-7.517 3.598-12.301 3.63-19.538.133-15.531-7.507-15.067-27.869.848-37.231 1.815-1.067 1.816-1.255.033-7C123.013 107.971 116.345 94 114.937 94c-2.578 0-12.711 6.681-17.752 11.704-4.754 4.736-5.766 5.296-9.581 5.296-2.55 0-6.223.991-9.135 2.466-2.679 1.356-4.924 2.368-4.99 2.25-.065-.119-.681-2.172-1.368-4.564-1.54-5.355-7.69-12.207-13.179-14.683-2.96-1.335-4.95-3.269-7.107-6.911L48.83 84.5l.567 4.067.568 4.066-24.983-.447L0 91.74V193.147l26.25-.354c24.429-.33 26.642-.511 31.897-2.607 12.826-5.116 19.298-14.731 19.308-28.686.005-6.721-.415-8.799-2.631-13-1.451-2.75-4.026-6.318-5.723-7.93-2.867-2.722-2.972-3.055-1.477-4.707 1.523-1.683 1.953-1.472 7.992 3.929 4.599 4.113 6.386 6.407 6.395 8.208.02 3.956 2.627 12.736 5.603 18.869 3.349 6.901 14.835 18.573 22.061 22.42 6.104 3.249 18.911 6.711 24.825 6.711 6.193 0 18.806-3.513 25.585-7.126 12.695-6.766 23.856-22.459 26.303-36.981.94-5.578 1.774-7.465 4.577-10.357 1.885-1.945 3.789-3.536 4.231-3.536.442 0 .804 12.382.804 27.515v27.514l30.25-.264 30.25-.265.017-51c.012-35.402-.068-39.301-.262-12.75l-.279 38.25H228v-12h26v-25h-26v-11h27.058l-.279-13.25-.279-13.25-17.857-.274-17.857-.273.635-3.727.636-3.726-2.225 3.75c-2.166 3.65-2.381 3.75-8.053 3.75-5.123 0-5.933-.272-6.689-2.25-1.975-5.164-9.434-8.066-14.834-5.772M.464 142.5c0 28.05.128 39.669.285 25.82.157-13.849.157-36.799 0-51-.156-14.201-.284-2.87-.285 25.18M31 123v7h3.277c5.079 0 7.723-2.397 7.723-7s-2.644-7-7.723-7H31v7m0 37.376V169h4.865C42.527 169 46 166.272 46 161.038c0-5.853-2.541-8.252-9.334-8.816l-5.666-.47v8.624" fill="#1976D2" fill-rule="evenodd"/><path fill-opacity=".35" d="M70.032 85.187C61.246 91.14 64.914 104 75.399 104c6.222 0 9.623-3.014 10.313-9.14.452-4.008.162-4.966-2.348-7.751-3.928-4.359-8.716-5.049-13.332-1.922m115.557 1.89c-8.264 9.821 4.415 22.68 14.225 14.426 3.543-2.982 4.575-6.347 3.121-10.184-1.989-5.25-4.821-7.319-10.02-7.319-4.062 0-5.106.438-7.326 3.077M49.708 90c.877 7.112 5.135 19.79 9.572 28.5 3.299 6.478 6.181 10.102 15.147 19.052 9.33 9.312 12.499 11.783 20.135 15.7 9.723 4.987 22.55 9.126 31.438 10.144l5.5.63-4.62-1.945c-11.384-4.794-28.208-19.178-31.872-27.252-2.388-5.262-2.491-7.694-.451-10.606 1.274-1.82 2.514-2.223 6.841-2.223 2.906 0 7.381.631 9.943 1.402 2.562.771 4.645 1.109 4.628.75-.053-1.116-8.224-6.869-13.555-9.542-9.373-4.7-18.039-4.412-26.849.893l-5.442 3.277-1.553-3.273c-.854-1.8-1.669-4.967-1.811-7.037-.212-3.081-.916-4.2-3.88-6.164-3.908-2.592-9.366-8.812-12.052-13.738L49.153 85.5l.555 4.5M214.5 93.783c-2.2 3.043-5.749 6.807-7.887 8.365-3.231 2.355-3.949 3.522-4.255 6.917-.202 2.247-.8 4.838-1.329 5.76-2.536 4.418-2.511 4.414-8.015.993-4.484-2.788-6.436-3.351-12.708-3.668-6.661-.336-8.035-.065-13.608 2.69-3.409 1.685-7.773 4.409-9.698 6.054l-3.5 2.991 5.5-1.431c8.117-2.111 11.679-1.866 14.545 1.001 2.911 2.91 3.056 5.627.591 11.045-3.672 8.074-19.455 22.14-30.343 27.044l-3.293 1.482 5-.605c7.666-.928 23.452-6.595 32.011-11.493 9.258-5.297 23.522-18.958 28.32-27.123 5.038-8.575 10.076-20.86 11.662-28.441.781-3.732 1.327-6.859 1.213-6.949-.113-.091-2.006 2.325-4.206 5.368" fill="#1976D2" fill-rule="evenodd"/></svg>